<svg xmlns="http://www.w3.org/2000/svg" width="176" height="40" viewBox="0 0 176 40">
    <g fill="none" fill-rule="evenodd">
        <g>
            <g>
                <path fill="#39B965" d="M147.307 6L175.112 6 175.112 33.806 147.307 33.806z" transform="translate(-80 -40) translate(80 40)"/>
                <path fill="#FEFEFE" d="M158.165 22.293c.473 0 .906.095 1.301.288.395.193.723.47.985.83v-.98h.767v6.149h-.767v-.976c-.246.355-.578.632-.998.834-.42.2-.872.302-1.355.302-.903 0-1.655-.31-2.254-.926-.601-.616-.9-1.378-.9-2.284 0-.92.306-1.69.919-2.31.613-.618 1.38-.927 2.302-.927zm5.962-.023c.526 0 .942.149 1.252.447.309.3.475.715.498 1.248h-.848c-.019-.29-.11-.515-.276-.676-.166-.16-.392-.24-.68-.24-.256 0-.471.086-.641.26-.172.173-.258.389-.258.645 0 .183.037.337.107.461.07.126.187.239.351.338.15.094.367.183.653.27.286.085.477.148.575.188.385.164.667.384.849.655.181.273.27.618.27 1.04 0 .528-.184.967-.553 1.315-.37.345-.838.519-1.404.519-.579 0-1.042-.19-1.394-.567-.35-.378-.534-.887-.553-1.529h.813v.023c0 .384.11.7.33.953.22.25.49.376.815.376.307 0 .565-.098.77-.29.203-.195.306-.44.306-.733 0-.294-.082-.53-.244-.71-.162-.178-.456-.346-.88-.502-.68-.243-1.126-.49-1.334-.745-.208-.253-.313-.593-.313-1.017 0-.48.174-.89.523-1.225.348-.336.771-.504 1.266-.504zm-9.64-1.924v.71c-.472.008-.806.102-1 .283-.197.18-.294.488-.294.923v.168h1.294v.688h-1.283v5.462h-.767v-5.462h-.824v-.688h.79v-.168c0-.65.166-1.133.494-1.446.33-.313.836-.47 1.517-.47h.073zm13.762.092v1.992h1.168v.79h-1.168v5.36h-.79v-5.36h-1.168v-.79h1.168v-1.992h.79zm2.151 6.805c.183 0 .34.065.468.195.13.129.195.287.195.473 0 .183-.065.34-.195.472-.128.131-.285.197-.468.197-.183 0-.34-.066-.469-.197-.13-.132-.193-.289-.193-.472 0-.186.063-.344.193-.473.13-.13.286-.195.47-.195zm-12.26-4.217c-.66 0-1.224.242-1.687.729-.464.487-.697 1.09-.697 1.81 0 .684.231 1.263.695 1.734.462.471 1.017.708 1.666.708.628 0 1.174-.248 1.637-.746.464-.498.697-1.097.697-1.798 0-.653-.233-1.221-.7-1.708-.466-.487-1.002-.73-1.611-.73zm4.076-10.14c.924 0 1.678.32 2.262.955.582.635.874 1.461.874 2.48v.058h-5.554c.048.67.292 1.212.727 1.624.437.414.981.62 1.634.62.464 0 .88-.12 1.248-.36.37-.24.655-.575.857-1.002h.893c-.282.681-.681 1.206-1.193 1.57-.513.365-1.107.548-1.78.548-.895 0-1.653-.319-2.271-.956-.619-.638-.928-1.405-.928-2.298 0-.937.304-1.71.908-2.32.605-.613 1.38-.919 2.323-.919zm-9.355-1.82v3.023c.332-.4.695-.693 1.09-.884.395-.189.837-.284 1.326-.284.865 0 1.595.31 2.195.933.597.622.897 1.38.897 2.271 0 .92-.306 1.691-.918 2.311-.611.62-1.378.932-2.304.932-.454 0-.87-.09-1.248-.271-.38-.182-.725-.455-1.038-.821v.931h-.779v-8.141h.779zm2.328 2.588c-.645 0-1.195.246-1.649.738-.452.49-.68 1.092-.68 1.8 0 .657.234 1.227.697 1.714.464.486.998.729 1.604.729.66 0 1.223-.245 1.687-.733.463-.489.696-1.092.696-1.811 0-.682-.23-1.258-.695-1.73-.461-.47-1.015-.707-1.66-.707zm6.909-.023c-.598 0-1.103.185-1.517.557-.413.37-.667.872-.76 1.504h4.66c-.148-.683-.423-1.199-.822-1.544-.399-.345-.92-.517-1.561-.517z" transform="translate(-80 -40) translate(80 40)"/>
                <path fill="#727376" d="M13.68 6.111c4.12 0 7.03 1.131 9.335 3.13l.245.217-2.51 2.929c-1.799-1.506-4.058-2.552-7.07-2.552-5.355 0-9.664 4.56-9.664 10.207 0 5.606 4.31 10.166 9.999 10.166 2.52 0 4.888-.804 6.554-2.265l.223-.203 2.468 2.76c-2.468 2.427-5.522 3.431-9.496 3.431C5.982 33.931 0 27.698 0 20.042c0-7.697 6.108-13.93 13.68-13.93zm117.34 0c7.571 0 13.763 6.276 13.763 13.973 0 7.656-6.192 13.847-13.764 13.847-7.572 0-13.722-6.233-13.722-13.889 0-7.697 6.15-13.93 13.722-13.93zm-92.34.502L49.722 33.43h-4.225l-2.761-6.86H29.936l-2.761 6.86H23.2L34.244 6.613h4.435zm11.82 0l7.698 13.806 7.781-13.806h4.016l-9.957 17.78v9.036h-3.806v-9.036l-9.957-17.78H50.5zm31.358 0c6.192 0 10.291 3.347 10.291 8.493 0 5.057-4 8.417-10.054 8.531l-.32.003h-5.523v9.79h-3.765V6.612h9.371zm23.367 0c5.9 0 9.79 3.18 9.79 8.074 0 3.715-2.27 6.473-5.955 7.577l-.279.08 6.694 11.085h-4.35l-6.276-10.626h-5.23V33.43h-3.765V6.613h9.371zm25.794 3.222c-5.355 0-9.705 4.56-9.705 10.207 0 5.606 4.35 10.166 9.705 10.166 5.397 0 9.748-4.56 9.748-10.124 0-5.648-4.351-10.25-9.748-10.25zm-94.683.794l-5.02 12.55h10.082l-5.062-12.55zm45.857-.627h-5.94v10.25h5.94c3.598 0 5.982-2.05 5.982-5.146s-2.384-5.104-5.982-5.104zm23.367 0h-5.94v9.413h5.94c3.305 0 5.522-1.883 5.522-4.728 0-2.844-2.217-4.685-5.522-4.685z" transform="translate(-80 -40) translate(80 40)"/>
            </g>
        </g>
    </g>
</svg>
