<?xml version="1.0" encoding="UTF-8"?>
<svg width="160px" height="48px" viewBox="0 0 160 48" version="1.1" xmlns="http://www.w3.org/2000/svg" xmlns:xlink="http://www.w3.org/1999/xlink">
    <title>Cogbee_logo</title>
    <g id="Cogbee_logo" stroke="none" stroke-width="1" fill="none" fill-rule="evenodd">
        <g id="Group-2" transform="translate(11.000000, 13.000000)">
            <path d="M137.70225,0.0227 L137.70225,21.98255 L115.74225,21.98255 L115.74225,0.0227 L137.70225,0.0227 Z M132.0892,12.85865 C131.3447,12.85865 130.7327,13.0999 130.2549,13.58365 C129.77715,14.06595 129.53745,14.6764 129.53745,15.4165 C129.53745,16.1219 129.7817,16.7278 130.26995,17.23125 C130.75835,17.7347 131.35675,17.9864 132.0637,17.9864 C132.59575,17.9864 133.0645,17.8417 133.47,17.55385 C133.8739,17.266 134.189,16.8514 134.41205,16.3134 L134.41205,16.3134 L133.70655,16.3134 C133.5468,16.651 133.3223,16.91475 133.0299,17.1047 C132.7389,17.2946 132.4104,17.38955 132.044,17.38955 C131.52855,17.38955 131.0991,17.2267 130.7538,16.89975 C130.4101,16.57405 130.2172,16.146 130.1795,15.6169 L130.1795,15.6169 L134.5657,15.6169 L134.5657,15.5717 C134.5657,14.7668 134.3351,14.1143 133.87545,13.61225 C133.41415,13.1104 132.81885,12.85865 132.0892,12.85865 Z M135.66625,16.9309 C135.5214,16.9309 135.39825,16.9821 135.29605,17.0847 C135.19345,17.18645 135.14315,17.31135 135.143,17.4586 C135.143,17.603 135.1936,17.7272 135.29605,17.8312 C135.3981,17.93465 135.52155,17.98625 135.6661,17.9864 C135.81095,17.9864 135.9344,17.93465 136.03605,17.8312 C136.1385,17.7272 136.1898,17.603 136.1897,17.4586 C136.1897,17.31135 136.13865,17.18645 136.03605,17.0847 C135.9344,16.98225 135.81095,16.9309 135.66625,16.9309 Z M127.59305,12.86775 C127.2027,12.86775 126.8681,13.0004 126.5937,13.2656 C126.3179,13.5309 126.18085,13.8535 126.18085,14.23335 C126.18085,14.56795 126.2636,14.83625 126.428,15.03665 C126.5923,15.2371 126.9435,15.4331 127.4815,15.6246 C127.81615,15.74815 128.0483,15.8807 128.1764,16.021 C128.30455,16.1626 128.3693,16.34955 128.3693,16.5817 C128.3693,16.8137 128.28795,17.00675 128.12665,17.1604 C127.9654,17.3126 127.76185,17.38955 127.5192,17.38955 C127.26295,17.38955 127.04895,17.29005 126.8756,17.09265 C126.70225,16.89365 126.6148,16.6435 126.6148,16.34045 L126.6148,16.34045 L126.6148,16.32235 L125.97275,16.32235 C125.9878,16.8289 126.1325,17.23125 126.40985,17.52975 C126.68725,17.8281 127.05345,17.97735 127.51015,17.97735 C127.95785,17.97735 128.3271,17.8403 128.61945,17.56745 C128.91045,17.29305 129.05655,16.94635 129.05655,16.52885 C129.05655,16.19575 128.98585,15.9229 128.84255,15.7075 C128.6994,15.49335 128.4763,15.32 128.1719,15.19045 C128.09505,15.1587 127.94425,15.1091 127.7182,15.0412 C127.49215,14.9733 127.3202,14.9026 127.2027,14.8286 C127.07305,14.75025 126.9812,14.66135 126.92535,14.56185 C126.86965,14.46395 126.841,14.34175 126.841,14.1972 C126.841,13.9952 126.90875,13.82485 127.0444,13.68765 C127.1786,13.55045 127.34885,13.4827 127.5508,13.4827 C127.77845,13.4827 127.9563,13.54595 128.0874,13.67265 C128.21865,13.7992 128.29095,13.9771 128.30595,14.2061 L128.30595,14.2061 L128.9752,14.2061 C128.9572,13.7856 128.826,13.45705 128.5819,13.22035 C128.3377,12.98525 128.00905,12.86775 127.59305,12.86775 Z M118.49215,12.9943 L117.84255,12.9943 L119.47945,17.85075 L119.88635,17.85075 L121.00775,14.1504 L122.14725,17.85075 L122.5543,17.85075 L124.1912,12.9943 L123.52945,12.9943 L122.35535,16.63285 L121.24285,12.9943 L120.79075,12.9943 L119.67845,16.63285 L118.49215,12.9943 Z M125.27485,12.9943 L124.65085,12.9943 L124.65085,17.85075 L125.27485,17.85075 L125.27485,12.9943 Z M131.9958,13.4466 C132.50225,13.4466 132.9138,13.5822 133.22875,13.8549 C133.5438,14.12775 133.7608,14.5348 133.87845,15.07435 L133.87845,15.07435 L130.19765,15.07435 C130.2715,14.5755 130.47205,14.17905 130.7976,13.88665 C131.1246,13.5927 131.524,13.4466 131.9958,13.4466 Z M125.27485,11.4208 L124.65085,11.4208 L124.65085,12.42455 L125.27485,12.42455 L125.27485,11.4208 Z M126.35245,5.4567 C125.60795,5.4567 124.99595,5.69795 124.51815,6.18165 C124.0404,6.664 123.8007,7.2744 123.8007,8.01455 C123.8007,8.71995 124.0449,9.32585 124.5332,9.8293 C125.0216,10.3327 125.62,10.58445 126.32695,10.58445 C126.859,10.58445 127.3277,10.43975 127.7332,10.15185 C128.13715,9.864 128.45225,9.44945 128.6753,8.91145 L128.6753,8.91145 L127.96975,8.91145 C127.81005,9.24905 127.58555,9.5128 127.29315,9.7027 C127.00215,9.89265 126.67365,9.9876 126.30725,9.9876 C125.79175,9.9876 125.3623,9.82475 125.01705,9.4978 C124.67335,9.17205 124.48045,8.74405 124.44275,8.21495 L124.44275,8.21495 L128.82895,8.21495 L128.82895,8.16975 C128.82895,7.36485 128.59835,6.7123 128.1387,6.2103 C127.6774,5.7084 127.0821,5.4567 126.35245,5.4567 Z M118.96395,4.01885 L118.349,4.01885 L118.349,10.4488 L118.96395,10.4488 L118.96395,9.7132 C119.21115,10.00265 119.484,10.2182 119.7839,10.36135 C120.08235,10.5045 120.4109,10.57535 120.76965,10.57535 C121.5007,10.57535 122.1066,10.32975 122.5889,9.8399 C123.0728,9.34995 123.31385,8.74105 123.31385,8.01455 C123.31385,7.3107 123.0773,6.7123 122.6055,6.2209 C122.13225,5.72955 121.55495,5.4838 120.8721,5.4838 C120.4863,5.4838 120.13665,5.5592 119.82455,5.7084 C119.5126,5.8591 119.22615,6.09125 118.96395,6.4063 L118.96395,6.4063 L118.96395,4.01885 Z M120.8028,6.0626 C121.3123,6.0626 121.7494,6.24955 122.1141,6.6219 C122.48035,6.99405 122.66275,7.4493 122.66275,7.9875 C122.66275,8.5557 122.4789,9.0319 122.1127,9.41785 C121.7463,9.80365 121.3017,9.99665 120.78025,9.99665 C120.30235,9.99665 119.8804,9.8052 119.514,9.4208 C119.1478,9.03645 118.96395,8.58585 118.96395,8.06725 C118.96395,7.50815 119.14325,7.03335 119.50055,6.646 C119.8593,6.25705 120.2934,6.0626 120.8028,6.0626 Z M126.25905,6.0446 C126.76545,6.0446 127.17705,6.18025 127.492,6.45295 C127.80705,6.7258 128.02405,7.13285 128.1417,7.6724 L128.1417,7.6724 L124.4609,7.6724 C124.53475,7.1735 124.7353,6.7771 125.06085,6.4847 C125.38785,6.19075 125.78725,6.0446 126.25905,6.0446 Z" id="Combined-Shape" fill="#E84947"></path>
            <path d="M10.8041,2.84217094e-14 C14.17405,2.84217094e-14 16.51985,0.9581 18.3702,2.6432 L18.3702,2.6432 L16.38775,4.95595 C14.96705,3.76655 13.1829,2.94055 10.8041,2.94055 C6.57495,2.94055 3.1718,6.5418 3.1718,11.00225 C3.1718,15.42955 6.57495,19.03085 11.0683,19.03085 C13.1499,19.03085 15.09915,18.33705 16.4208,17.08145 L16.4208,17.08145 L18.3702,19.26215 C16.4208,21.1785 14.00895,21.97135 10.87015,21.97135 C4.72475,21.97135 -2.13162821e-14,17.0484 -2.13162821e-14,11.00225 C-2.13162821e-14,4.92295 4.82385,2.84217094e-14 10.8041,2.84217094e-14 Z M29.7877,2.84217094e-14 C35.7678,2.84217094e-14 40.6577,4.95595 40.6577,11.0353 C40.6577,17.08145 35.7678,21.97135 29.7877,21.97135 C23.80745,21.97135 18.95055,17.0484 18.95055,11.00225 C18.95055,4.92295 23.80745,2.84217094e-14 29.7877,2.84217094e-14 Z M53.529,2.84217094e-14 C56.89895,2.84217094e-14 59.2448,0.9581 61.0951,2.6432 L61.0951,2.6432 L59.1127,4.95595 C57.69195,3.76655 55.90785,2.94055 53.529,2.94055 C49.29985,2.94055 45.8967,6.5418 45.8967,11.00225 C45.8967,15.42955 49.29985,19.03085 53.7932,19.03085 C55.4452,19.03085 56.932,18.66745 58.2206,18.0397 L58.2206,18.0397 L58.2206,11.1674 L61.19415,11.1674 L61.19415,19.9229 C59.2448,21.27755 56.76685,21.97135 53.59505,21.97135 C47.4497,21.97135 42.7249,17.0484 42.7249,11.00225 C42.7249,4.92295 47.54875,2.84217094e-14 53.529,2.84217094e-14 Z M73.3385,0.42945 C77.039,0.42945 79.91345,2.8413 79.91345,6.11235 C79.91345,8.6233 78.0963,10.07705 76.6756,10.6387 C78.7901,11.26645 80.60725,12.9515 80.60725,15.7269 C80.60725,18.8657 78.03025,21.5749 73.86715,21.5749 L73.86715,21.5749 L64.9464,21.5749 L64.9464,0.42945 Z M97.0139,0.39645 L95.5739,3.20485 L86.5403,3.20485 L86.5403,9.5485 L95.69225,9.5485 L95.69225,12.3568 L86.5403,12.3568 L86.5403,18.7665 L97.0139,18.7665 L97.0139,21.5749 L83.5666,21.5749 L83.5666,0.39645 L97.0139,0.39645 Z M113.35435,0.39645 L111.91435,3.20485 L102.88075,3.20485 L102.88075,9.5485 L112.0327,9.5485 L112.0327,12.3568 L102.88075,12.3568 L102.88075,18.7665 L113.35435,18.7665 L113.35435,21.5749 L99.90705,21.5749 L99.90705,0.39645 L113.35435,0.39645 Z M29.7877,2.94055 C25.55855,2.94055 22.1224,6.5418 22.1224,11.00225 C22.1224,15.42955 25.55855,19.03085 29.7877,19.03085 C34.04975,19.03085 37.4859,15.42955 37.4859,11.0353 C37.4859,6.57485 34.04975,2.94055 29.7877,2.94055 Z M73.5368,12.0264 L67.92005,12.0264 L67.92005,18.89875 L73.50375,18.89875 C75.7835,18.89875 77.5016,17.41195 77.5016,15.4626 C77.5016,13.5132 75.7835,12.0264 73.5368,12.0264 L73.5368,12.0264 Z M73.04115,3.07265 L67.92005,3.07265 L67.92005,9.51535 L73.04115,9.51535 C75.1888,9.51535 76.8077,8.1278 76.8077,6.3105 C76.8077,4.49335 75.1888,3.07265 73.04115,3.07265 L73.04115,3.07265 Z" id="Combined-Shape" fill="#727376"></path>
        </g>
    </g>
</svg>